<svg width="256" height="157" viewBox="0 0 256 157" fill="none" xmlns="http://www.w3.org/2000/svg">
<path d="M119.336 90H124.134L125.784 84.7021H133.504L135.154 90H139.952L132.338 68.1577H126.965L119.336 90ZM129.599 72.396H129.689L132.444 81.2812H126.844L129.599 72.396ZM141.965 90H146.385V84.6265L147.521 83.3701L152.167 90H157.269L150.835 80.7515L156.966 73.7734H151.956L146.476 80.2671H146.385V68.1577H141.965V90ZM160.795 71.6846C162.127 71.6846 163.157 70.6401 163.157 69.3838C163.157 68.1274 162.127 67.083 160.795 67.083C159.463 67.083 158.434 68.1274 158.434 69.3838C158.434 70.6401 159.463 71.6846 160.795 71.6846ZM158.585 90H163.005V73.7734H158.585V90ZM166.078 90H170.498V68.1577H166.078V90ZM180.867 90.333C185.499 90.333 187.739 87.5933 188.238 85.2017L188.284 85.0352H184.227L184.197 85.126C183.879 86.0342 182.774 87.0332 180.958 87.0332C178.702 87.0332 177.294 85.5195 177.249 82.9312H188.42V81.5688C188.42 76.6646 185.438 73.4404 180.685 73.4404C175.932 73.4404 172.89 76.7402 172.89 81.9019V81.917C172.89 87.1089 175.902 90.333 180.867 90.333ZM180.761 76.7402C182.592 76.7402 183.909 77.9058 184.182 80.146H177.294C177.582 77.9512 178.944 76.7402 180.761 76.7402ZM197.381 90.333C201.559 90.333 204.48 88.2441 204.48 85.0654V85.0503C204.48 82.6587 203.087 81.3267 199.697 80.6152L196.942 80.0249C195.307 79.6768 194.747 79.1318 194.747 78.2993V78.2842C194.747 77.2397 195.701 76.5586 197.229 76.5586C198.864 76.5586 199.818 77.4365 199.969 78.6021L199.984 78.7231H204.056V78.5718C203.95 75.7261 201.543 73.4404 197.229 73.4404C193.097 73.4404 190.433 75.4385 190.433 78.5264V78.5415C190.433 80.9634 192.022 82.5376 195.171 83.2036L197.926 83.7788C199.515 84.127 200.06 84.6265 200.06 85.4893V85.5044C200.06 86.5488 199.046 87.1997 197.381 87.1997C195.61 87.1997 194.656 86.458 194.369 85.1865L194.338 85.0503H190.024L190.04 85.1865C190.388 88.2593 192.885 90.333 197.381 90.333ZM206.766 90H211.186V80.7061C211.186 78.5869 212.442 77.1035 214.395 77.1035C216.408 77.1035 217.528 78.4507 217.528 80.7212V90H221.948V79.813C221.948 75.8926 219.768 73.4404 216.256 73.4404C213.819 73.4404 212.109 74.5605 211.276 76.5737H211.186V68.1577H206.766V90ZM239.294 90.3784C244.804 90.3784 248.104 87.7144 248.104 83.5215V83.5063C248.104 80.0703 246.045 78.2085 241.474 77.3003L239.158 76.8311C236.646 76.3315 235.525 75.5293 235.525 74.1519V74.1367C235.525 72.5776 236.933 71.5029 239.279 71.4878C241.535 71.4878 243.109 72.5322 243.336 74.2427L243.351 74.4243H247.665L247.65 74.1367C247.438 70.3071 244.335 67.7793 239.279 67.7793C234.436 67.7793 230.954 70.4131 230.954 74.4092V74.4243C230.954 77.709 233.134 79.7676 237.448 80.6304L239.749 81.0845C242.458 81.6445 243.533 82.3862 243.533 83.8696V83.8848C243.533 85.5498 241.943 86.6548 239.416 86.6548C236.918 86.6548 235.117 85.5952 234.829 83.8999L234.799 83.7334H230.485L230.5 83.9756C230.757 88.002 234.103 90.3784 239.294 90.3784Z" fill="white"/>
<path d="M58.8779 24.2371C60.7205 20.5519 65.9795 20.5519 67.8221 24.2371L119.608 127.808C121.09 130.772 117.379 133.597 114.916 131.379L63.35 84.9295L11.7836 131.379C9.32101 133.597 5.61024 130.772 7.09243 127.808L58.8779 24.2371Z" fill="url(#paint0_linear_25_2)"/>
<path opacity="0.95" d="M26.1891 81.5675C23.5824 81.5675 22.216 78.4719 23.9725 76.5459L73.8949 21.8067C74.7123 20.9104 76.1207 21.9701 75.4859 23.0039L50.4879 63.7145C49.2605 65.7134 50.6988 68.2843 53.0444 68.2843H99.8805C102.377 68.2843 103.781 71.1555 102.249 73.126L55.0692 133.787C54.3158 134.756 52.8168 133.778 53.3999 132.698L78.6245 85.9931C79.704 83.9943 78.2566 81.5675 75.9849 81.5675H26.1891Z" fill="url(#paint1_linear_25_2)"/>
<defs>
<linearGradient id="paint0_linear_25_2" x1="-20.6608" y1="38.5051" x2="136.212" y2="118.055" gradientUnits="userSpaceOnUse">
<stop stop-color="#00FF66"/>
<stop offset="1" stop-color="#3300FF"/>
</linearGradient>
<linearGradient id="paint1_linear_25_2" x1="11.9368" y1="28.8148" x2="119.543" y2="114.56" gradientUnits="userSpaceOnUse">
<stop stop-color="#FF9900"/>
<stop offset="0.0001" stop-color="#FF6B00"/>
<stop offset="1" stop-color="#DBFF00"/>
</linearGradient>
</defs>
</svg>
