<svg width="491" height="340" viewBox="0 0 491 340" fill="none" xmlns="http://www.w3.org/2000/svg">
<path d="M327.57 170.989L256.101 212.208C253.339 213.801 249.936 213.801 247.174 212.208L175.705 170.989C172.944 169.396 171.242 166.452 171.242 163.265V80.8262C171.242 77.6401 172.944 74.6961 175.705 73.103L247.174 31.8833C249.936 30.2902 253.339 30.2903 256.101 31.8833L327.57 73.103C330.331 74.6961 332.033 77.6401 332.033 80.8262V163.265C332.033 166.452 330.331 169.396 327.57 170.989Z" stroke="white" stroke-width="4" stroke-dasharray="800 800"/>
<path d="M164.546 66.4144L236.015 25.1947C238.777 23.6018 242.18 23.6018 244.942 25.1947L316.41 66.4144C319.172 68.0075 320.874 70.9516 320.874 74.1377V156.578C320.874 159.764 319.172 162.708 316.41 164.301L244.942 205.52C242.18 207.113 238.777 207.113 236.015 205.52L164.546 164.301C161.785 162.708 160.083 159.764 160.083 156.578V74.1377C160.083 70.9516 161.785 68.0075 164.546 66.4144Z" stroke="white" stroke-width="4" stroke-dasharray="800 800"/>
<path d="M182.347 269.285C181.457 269.285 180.858 268.995 180.549 268.415C180.433 268.222 180.375 268.067 180.375 267.951C180.375 267.835 180.413 267.738 180.491 267.661C184.009 265.07 188.185 261.01 193.019 255.481C190.621 254.166 188.765 252.6 187.451 250.783C186.136 248.927 185.479 247.226 185.479 245.679C185.479 244.094 185.962 242.856 186.929 241.967C187.895 241.078 189.307 240.633 191.163 240.633C194.681 240.633 197.678 242.663 200.153 246.723C201.235 245.37 202.956 243.166 205.315 240.111C207.712 237.056 209.452 234.872 210.535 233.557C211.617 232.204 212.951 230.618 214.537 228.801C217.475 225.553 219.699 223.929 221.207 223.929C222.367 223.968 222.947 224.586 222.947 225.785C222.947 227.061 222.502 228.82 221.613 231.063C220.762 233.267 220.066 235.026 219.525 236.341C219.022 237.617 218.249 239.338 217.205 241.503C216.199 243.63 215.407 245.331 214.827 246.607C214.247 247.844 213.357 249.7 212.159 252.175C210.96 254.611 210.129 256.312 209.665 257.279C212.642 257.086 215.001 256.564 216.741 255.713C217.05 255.558 217.243 255.384 217.321 255.191C217.398 254.998 217.495 254.901 217.611 254.901C217.765 254.901 217.901 254.978 218.017 255.133C218.171 255.288 218.249 255.442 218.249 255.597C218.249 256.912 215.233 257.82 209.201 258.323C207.693 261.455 206.649 263.717 206.069 265.109C205.914 265.418 205.682 265.573 205.373 265.573C204.561 265.573 204.155 264.8 204.155 263.253C204 262.054 203.729 260.411 203.343 258.323C200.288 258.091 197.427 257.414 194.759 256.293V256.351C193.096 258.4 191.221 260.508 189.133 262.673C187.083 264.8 185.44 266.424 184.203 267.545L182.347 269.285ZM207.519 257.337C216.373 238.932 220.801 228.666 220.801 226.539C220.801 225.882 220.569 225.553 220.105 225.553C219.409 225.553 218.423 226.249 217.147 227.641C215.909 229.033 214.904 230.193 214.131 231.121C213.357 232.049 212.333 233.344 211.057 235.007C209.781 236.631 208.717 237.984 207.867 239.067C207.055 240.15 205.895 241.716 204.387 243.765C202.879 245.776 201.757 247.264 201.023 248.231C202.221 250.474 203.304 253.432 204.271 257.105C205.199 257.26 206.281 257.337 207.519 257.337ZM199.515 247.593C197.233 243.649 194.527 241.677 191.395 241.677C190.003 241.677 188.959 241.967 188.263 242.547C187.567 243.127 187.219 243.997 187.219 245.157C187.219 246.278 187.857 247.69 189.133 249.391C190.447 251.054 192.207 252.523 194.411 253.799C195.571 252.446 197.272 250.377 199.515 247.593ZM200.327 249.159C199.089 250.822 197.659 252.678 196.035 254.727C198.316 255.81 200.636 256.544 202.995 256.931C202.183 253.683 201.293 251.092 200.327 249.159ZM206.997 258.439H204.561L205.257 262.093C205.721 261.165 206.301 259.947 206.997 258.439ZM228.378 262.673L233.134 259.889C233.173 259.966 233.192 260.121 233.192 260.353C233.192 260.585 233.018 260.778 232.67 260.933C227.412 264.452 223.661 266.211 221.418 266.211C219.485 266.211 218.518 264.935 218.518 262.383C218.518 261.339 218.692 260.392 219.04 259.541C219.388 258.652 219.949 258.207 220.722 258.207C223.39 258.207 225.459 257.801 226.928 256.989C228.436 256.177 229.19 255.346 229.19 254.495C229.19 253.606 228.572 253.161 227.334 253.161C224.55 253.161 221.012 255.674 216.72 260.701C215.406 263.176 214.42 265.07 213.762 266.385C213.569 266.733 213.298 266.907 212.95 266.907C212.177 266.907 211.79 266.636 211.79 266.095C211.79 265.863 211.868 265.592 212.022 265.283L217.184 256.235C220.471 250.435 223.835 245.215 227.276 240.575C230.718 235.935 233.308 233.615 235.048 233.615C235.628 233.615 236.034 233.886 236.266 234.427C236.382 234.62 236.44 234.852 236.44 235.123C236.44 236.515 235.242 238.7 232.844 241.677C230.447 244.654 228.204 247.168 226.116 249.217C224.028 251.266 221.902 253.258 219.736 255.191L218.112 258.091C222.288 253.838 225.923 251.711 229.016 251.711C230.795 251.711 231.684 252.291 231.684 253.451C231.684 254.727 230.679 256.003 228.668 257.279C226.696 258.555 224.222 259.193 221.244 259.193C220.819 259.812 220.606 260.508 220.606 261.281C220.606 263.446 221.457 264.529 223.158 264.529C224.396 264.529 226.078 263.949 228.204 262.789C228.282 262.712 228.34 262.673 228.378 262.673ZM234.526 235.761C234.526 235.374 234.43 235.181 234.236 235.181C232.11 235.181 227.682 241.097 220.954 252.929C224.357 249.797 227.47 246.607 230.292 243.359C233.115 240.072 234.526 237.54 234.526 235.761ZM241.835 247.651C242.415 247.651 242.705 247.941 242.705 248.521C242.705 249.101 242.434 249.7 241.893 250.319C241.352 250.899 240.752 251.189 240.095 251.189C239.554 251.189 239.283 250.822 239.283 250.087C239.283 249.314 239.592 248.714 240.211 248.289C240.83 247.864 241.371 247.651 241.835 247.651ZM236.383 255.307C236.576 254.998 236.847 254.843 237.195 254.843C237.543 254.843 237.891 255.017 238.239 255.365C238.239 255.52 237.988 255.868 237.485 256.409C236.982 256.95 236.132 258.168 234.933 260.063C233.734 261.919 233.135 263.156 233.135 263.775C233.135 264.162 233.425 264.394 234.005 264.471C234.778 264.471 235.977 264.104 237.601 263.369C239.225 262.596 240.656 261.822 241.893 261.049L243.749 259.889C243.788 259.966 243.807 260.121 243.807 260.353C243.807 260.585 243.633 260.778 243.285 260.933C238.065 264.49 234.43 266.269 232.381 266.269C231.376 266.269 230.873 265.766 230.873 264.761C230.873 263.756 231.414 262.364 232.497 260.585C233.618 258.768 234.914 257.008 236.383 255.307ZM243.611 266.269C241.871 266.269 241.001 265.322 241.001 263.427C241.001 260.914 242.354 257.318 245.061 252.639C247.806 247.922 250.919 243.707 254.399 239.995C257.918 236.244 260.682 234.369 262.693 234.369C263.428 234.369 263.795 234.891 263.795 235.935C263.795 237.559 262.422 240.208 259.677 243.881C256.97 247.554 254.051 250.996 250.919 254.205C247.787 257.414 245.37 259.618 243.669 260.817C243.592 261.436 243.553 261.861 243.553 262.093C243.553 262.286 243.572 262.518 243.611 262.789C243.65 263.06 243.804 263.408 244.075 263.833C244.346 264.258 244.79 264.471 245.409 264.471C246.066 264.471 247.207 264.104 248.831 263.369C250.455 262.596 251.886 261.822 253.123 261.049L254.979 259.889C255.018 259.966 255.037 260.121 255.037 260.353C255.037 260.585 254.863 260.778 254.515 260.933C249.295 264.49 245.66 266.269 243.611 266.269ZM261.707 237.327C261.668 236.476 261.417 236.051 260.953 236.051C259.754 236.051 257.937 237.404 255.501 240.111C253.065 242.818 250.706 246.066 248.425 249.855C246.144 253.606 244.655 256.834 243.959 259.541C245.583 258.226 247.671 256.293 250.223 253.741C252.775 251.189 255.288 248.27 257.763 244.983C260.238 241.696 261.552 239.144 261.707 237.327ZM256.508 259.715C254.188 259.715 253.028 259.212 253.028 258.207C253.028 257.008 254.4 255.597 257.146 253.973C259.891 252.31 262.366 251.479 264.57 251.479C265.691 251.479 266.252 251.827 266.252 252.523C266.252 252.91 265.962 253.335 265.382 253.799C264.802 254.263 264.241 254.63 263.7 254.901C263.158 255.172 262.849 255.307 262.772 255.307C262.54 255.307 262.385 255.21 262.308 255.017C262.23 254.746 262.424 254.476 262.888 254.205C263.39 253.896 263.642 253.567 263.642 253.219C263.642 252.871 263.197 252.697 262.308 252.697C261.457 252.697 260.104 253.316 258.248 254.553C256.392 255.752 255.464 256.738 255.464 257.511C255.464 258.091 256.14 258.381 257.494 258.381C257.726 258.381 258.151 258.362 258.77 258.323C259.388 258.284 259.698 258.362 259.698 258.555C259.698 258.748 258.731 259.444 256.798 260.643C254.903 261.842 253.956 262.866 253.956 263.717C253.956 264.684 254.574 265.167 255.812 265.167C257.088 265.167 258.518 264.838 260.104 264.181C262.656 263.06 264.976 261.861 267.064 260.585L268.166 259.889C268.204 259.966 268.224 260.121 268.224 260.353C268.224 260.585 268.05 260.778 267.702 260.933C265.652 262.325 263.41 263.659 260.974 264.935C258.538 266.172 256.334 266.791 254.362 266.791C252.428 266.791 251.462 266.153 251.462 264.877C251.462 263.562 253.144 261.842 256.508 259.715ZM269.995 259.019C268.139 260.72 266.96 261.571 266.457 261.571C266.302 261.571 266.225 261.494 266.225 261.339C266.225 261.184 266.283 261.049 266.399 260.933C267.327 260.43 268.41 259.618 269.647 258.497C269.454 258.033 269.357 257.53 269.357 256.989C269.357 255.674 270.034 254.418 271.387 253.219C272.74 252.02 273.881 251.421 274.809 251.421C275.312 251.421 275.563 251.672 275.563 252.175C275.563 252.639 274.79 253.799 273.243 255.655C273.088 255.848 272.914 256.042 272.721 256.235C272.528 256.428 272.315 256.66 272.083 256.931C271.89 257.163 271.735 257.337 271.619 257.453C271.812 257.646 272.16 257.994 272.663 258.497C273.166 258.961 273.572 259.348 273.881 259.657C274.732 260.508 275.157 261.571 275.157 262.847C275.157 264.123 274.364 265.225 272.779 266.153C271.194 267.12 269.531 267.603 267.791 267.603C266.09 267.603 265.239 267.081 265.239 266.037C265.239 265.032 266.032 264.104 267.617 263.253C269.202 262.402 270.865 261.822 272.605 261.513C272.373 261.204 271.928 260.798 271.271 260.295C270.652 259.792 270.227 259.367 269.995 259.019ZM273.011 262.209C271.696 262.364 270.459 262.731 269.299 263.311C268.139 263.852 267.559 264.51 267.559 265.283C267.559 266.018 268.081 266.385 269.125 266.385C270.208 266.385 271.155 266.134 271.967 265.631C272.818 265.128 273.243 264.568 273.243 263.949C273.243 263.33 273.166 262.75 273.011 262.209ZM271.213 256.989L272.721 255.365C273.726 254.166 274.229 253.451 274.229 253.219C274.229 252.948 274.113 252.813 273.881 252.813C273.224 252.813 272.547 253.142 271.851 253.799C271.155 254.418 270.807 255.036 270.807 255.655C270.807 256.235 270.942 256.68 271.213 256.989ZM278.826 264.587C279.174 264.587 281.108 263.06 284.626 260.005C288.184 256.912 290.272 255.365 290.89 255.365C291.509 255.365 291.818 255.636 291.818 256.177C291.818 256.602 291.432 257.26 290.658 258.149C289.885 259.038 289.112 260.005 288.338 261.049C287.604 262.093 287.236 263.021 287.236 263.833C287.236 264.258 287.546 264.471 288.164 264.471C288.822 264.471 289.962 264.104 291.586 263.369C293.21 262.596 294.641 261.822 295.878 261.049L297.734 259.889C297.773 259.966 297.792 260.121 297.792 260.353C297.792 260.585 297.618 260.778 297.27 260.933C292.05 264.49 288.416 266.269 286.366 266.269C285.361 266.269 284.858 265.728 284.858 264.645C284.858 263.91 285.129 263.021 285.67 261.977C286.212 260.933 286.753 260.063 287.294 259.367L288.048 258.323C286.308 259.638 284.51 261.126 282.654 262.789C280.798 264.413 279.387 265.631 278.42 266.443C277.454 267.294 276.777 267.719 276.39 267.719C276.004 267.719 275.81 267.429 275.81 266.849C275.81 266.308 276.719 264.374 278.536 261.049C280.354 257.724 282.442 254.147 284.8 250.319C287.198 246.452 289.692 242.953 292.282 239.821C294.912 236.689 296.903 235.123 298.256 235.123C298.836 235.123 299.242 235.394 299.474 235.935C299.59 236.128 299.648 236.36 299.648 236.631C299.648 239.299 295.646 244.422 287.642 252.001C286.134 253.47 284.665 254.824 283.234 256.061C280.296 261.01 278.826 263.852 278.826 264.587ZM297.734 237.269C297.734 236.882 297.638 236.689 297.444 236.689C296.671 236.689 295.047 238.39 292.572 241.793C290.098 245.196 287.468 249.159 284.684 253.683C293.384 245.756 297.734 240.285 297.734 237.269ZM142.17 296.081C140.662 296.081 139.908 295.424 139.908 294.109C139.908 292.098 141.029 290.204 143.272 288.425C145.514 286.646 148.182 285.196 151.276 284.075C151.005 282.954 150.309 282.103 149.188 281.523C148.066 280.904 146.674 280.595 145.012 280.595C143.388 280.595 141.686 280.904 139.908 281.523C138.168 282.142 136.505 283.031 134.92 284.191C133.373 285.312 132.097 286.82 131.092 288.715C130.125 290.571 129.642 292.62 129.642 294.863C129.642 295.636 130.222 297.898 131.382 301.649C132.542 305.4 133.122 308.512 133.122 310.987C133.122 311.606 133.044 312.495 132.89 313.655C134.359 313.5 135.422 313.423 136.08 313.423C139.83 313.423 141.706 314.409 141.706 316.381C141.706 317.077 141.493 317.657 141.068 318.121C140.642 318.585 139.927 319.126 138.922 319.745C138.612 319.552 138.458 319.378 138.458 319.223C138.458 319.068 138.535 318.933 138.69 318.817C139.85 318.16 140.43 317.502 140.43 316.845C140.43 315.53 138.902 314.873 135.848 314.873C134.726 314.873 133.644 314.95 132.6 315.105C131.942 317.58 130.705 319.9 128.888 322.065C127.109 324.192 125.118 325.912 122.914 327.227C120.71 328.58 118.486 329.624 116.244 330.359C114.04 331.094 112.087 331.461 110.386 331.461C107.756 331.461 106.442 330.688 106.442 329.141C106.442 326.976 107.795 324.791 110.502 322.587C113.208 320.383 116.418 318.546 120.13 317.077C123.88 315.569 127.554 314.506 131.15 313.887C131.304 312.804 131.382 311.934 131.382 311.277C131.382 309.614 130.763 307.024 129.526 303.505C128.327 299.948 127.728 296.893 127.728 294.341C127.728 291.789 128.733 289.256 130.744 286.743C132.754 284.191 135.132 282.238 137.878 280.885C140.662 279.532 143.291 278.855 145.766 278.855C149.671 278.855 151.817 280.498 152.204 283.785C154.369 283.089 155.838 282.741 156.612 282.741C157.385 282.741 157.791 282.78 157.83 282.857C157.907 282.896 157.946 283.108 157.946 283.495C157.946 283.882 157.772 284.133 157.424 284.249C155.684 284.326 153.963 284.578 152.262 285.003C152.184 288.135 151.005 290.764 148.724 292.891C146.442 295.018 144.258 296.081 142.17 296.081ZM108.704 327.691C108.704 328.812 109.825 329.373 112.068 329.373C115.2 329.373 118.699 328.252 122.566 326.009C124.46 324.926 126.162 323.457 127.67 321.601C129.216 319.706 130.28 317.618 130.86 315.337C127.573 315.878 124.267 316.748 120.942 317.947C117.655 319.146 114.794 320.634 112.358 322.413C109.922 324.153 108.704 325.912 108.704 327.691ZM141.764 293.761C141.764 294.496 142.15 294.863 142.924 294.863C144.393 294.863 146.152 293.877 148.202 291.905C150.29 289.894 151.353 287.69 151.392 285.293C148.685 286.144 146.404 287.323 144.548 288.831C142.692 290.339 141.764 291.982 141.764 293.761ZM141.942 319.455C141.787 319.532 141.652 319.571 141.536 319.571C141.381 319.571 141.304 319.494 141.304 319.339C141.304 319.184 141.362 319.049 141.478 318.933C143.063 318.044 144.803 316.594 146.698 314.583C144.958 314.042 144.088 313.288 144.088 312.321C144.088 311.316 144.745 310.214 146.06 309.015C147.375 307.778 148.612 307.159 149.772 307.159C150.545 307.159 150.932 307.623 150.932 308.551C150.932 309.982 150.217 311.509 148.786 313.133C150.642 313.442 151.57 313.887 151.57 314.467C151.57 315.24 151.222 315.84 150.526 316.265C149.869 316.652 149.095 317.367 148.206 318.411C147.317 319.455 146.872 320.499 146.872 321.543C146.872 321.775 146.949 321.988 147.104 322.181C147.259 322.374 147.587 322.471 148.09 322.471C148.593 322.471 149.656 322.104 151.28 321.369C152.904 320.596 154.335 319.822 155.572 319.049L157.428 317.889C157.467 317.966 157.486 318.121 157.486 318.353C157.486 318.585 157.312 318.778 156.964 318.933C151.744 322.49 148.109 324.269 146.06 324.269C145.055 324.269 144.552 323.766 144.552 322.761C144.552 321.949 144.823 321.098 145.364 320.209C145.944 319.32 146.563 318.585 147.22 318.005C147.916 317.425 148.535 316.884 149.076 316.381C149.656 315.84 149.946 315.492 149.946 315.337C149.946 315.182 149.695 315.086 149.192 315.047C148.728 315.008 148.109 314.912 147.336 314.757C145.209 317.038 143.411 318.604 141.942 319.455ZM145.538 311.393C145.538 312.166 146.389 312.708 148.09 313.017C149.095 311.78 149.598 310.716 149.598 309.827C149.598 308.899 149.308 308.435 148.728 308.435C148.148 308.435 147.471 308.783 146.698 309.479C145.925 310.136 145.538 310.774 145.538 311.393ZM166.135 305.651C166.715 305.651 167.005 305.941 167.005 306.521C167.005 307.101 166.734 307.7 166.193 308.319C165.652 308.899 165.052 309.189 164.395 309.189C163.854 309.189 163.583 308.822 163.583 308.087C163.583 307.314 163.892 306.714 164.511 306.289C165.13 305.864 165.671 305.651 166.135 305.651ZM160.683 313.307C160.876 312.998 161.147 312.843 161.495 312.843C161.843 312.843 162.191 313.017 162.539 313.365C162.539 313.52 162.288 313.868 161.785 314.409C161.282 314.95 160.432 316.168 159.233 318.063C158.034 319.919 157.435 321.156 157.435 321.775C157.435 322.162 157.725 322.394 158.305 322.471C159.078 322.471 160.277 322.104 161.901 321.369C163.525 320.596 164.956 319.822 166.193 319.049L168.049 317.889C168.088 317.966 168.107 318.121 168.107 318.353C168.107 318.585 167.933 318.778 167.585 318.933C162.365 322.49 158.73 324.269 156.681 324.269C155.676 324.269 155.173 323.766 155.173 322.761C155.173 321.756 155.714 320.364 156.797 318.585C157.918 316.768 159.214 315.008 160.683 313.307ZM166.345 318.933C167.079 318.508 168.046 317.831 169.245 316.903C172.183 314.583 173.749 313.423 173.943 313.423C174.523 313.423 174.813 313.674 174.813 314.177C174.813 314.68 174.503 315.453 173.885 316.497C173.305 317.541 172.628 318.624 171.855 319.745C171.12 320.866 170.695 321.543 170.579 321.775C170.617 321.814 170.695 321.833 170.811 321.833C170.965 321.833 171.739 321.33 173.131 320.325C174.523 319.281 175.973 318.198 177.481 317.077C178.989 315.917 179.878 315.26 180.149 315.105C180.419 314.912 180.671 314.815 180.903 314.815C181.367 314.854 181.599 315.124 181.599 315.627C181.599 315.82 180.941 316.806 179.627 318.585C178.312 320.325 177.655 321.446 177.655 321.949C177.655 322.297 178.061 322.471 178.873 322.471C179.723 322.471 180.961 322.104 182.585 321.369C184.209 320.596 185.639 319.822 186.877 319.049L188.733 317.889C188.771 317.966 188.791 318.121 188.791 318.353C188.791 318.585 188.617 318.778 188.269 318.933C183.049 322.49 179.414 324.269 177.365 324.269C176.166 324.269 175.567 323.805 175.567 322.877C175.567 321.988 175.818 321.137 176.321 320.325C176.862 319.513 177.326 318.836 177.713 318.295C178.099 317.715 178.293 317.406 178.293 317.367C176.514 318.643 174.407 320.17 171.971 321.949C169.535 323.728 168.162 324.617 167.853 324.617C167.621 324.617 167.505 324.346 167.505 323.805C167.505 323.264 168.259 321.852 169.767 319.571C171.313 317.29 172.087 316.072 172.087 315.917C172.087 315.762 172.048 315.685 171.971 315.685L171.391 315.975L168.491 318.295C168.297 318.45 167.93 318.701 167.389 319.049C166.847 319.397 166.499 319.571 166.345 319.571C166.229 319.571 166.171 319.494 166.171 319.339C166.171 319.146 166.229 319.01 166.345 318.933ZM197.457 305.651C198.037 305.651 198.327 305.941 198.327 306.521C198.327 307.101 198.057 307.7 197.515 308.319C196.974 308.899 196.375 309.189 195.717 309.189C195.176 309.189 194.905 308.822 194.905 308.087C194.905 307.314 195.215 306.714 195.833 306.289C196.452 305.864 196.993 305.651 197.457 305.651ZM192.005 313.307C192.199 312.998 192.469 312.843 192.817 312.843C193.165 312.843 193.513 313.017 193.861 313.365C193.861 313.52 193.61 313.868 193.107 314.409C192.605 314.95 191.754 316.168 190.555 318.063C189.357 319.919 188.757 321.156 188.757 321.775C188.757 322.162 189.047 322.394 189.627 322.471C190.401 322.471 191.599 322.104 193.223 321.369C194.847 320.596 196.278 319.822 197.515 319.049L199.371 317.889C199.41 317.966 199.429 318.121 199.429 318.353C199.429 318.585 199.255 318.778 198.907 318.933C193.687 322.49 190.053 324.269 188.003 324.269C186.998 324.269 186.495 323.766 186.495 322.761C186.495 321.756 187.037 320.364 188.119 318.585C189.241 316.768 190.536 315.008 192.005 313.307ZM198.595 313.945L197.145 314.351C197.068 314.351 197.029 314.293 197.029 314.177C197.029 313.829 197.454 313.404 198.305 312.901C199.194 312.398 199.91 312.147 200.451 312.147C200.992 312.147 201.263 313.307 201.263 315.627L200.915 321.253C200.954 321.214 202.249 319.803 204.801 317.019C207.353 314.196 209.557 312.031 211.413 310.523C213.308 309.015 214.912 308.261 216.227 308.261C216.807 308.3 217.097 308.512 217.097 308.899C217.097 309.247 216.749 309.711 216.053 310.291C215.357 310.871 214.816 311.161 214.429 311.161C214.081 311.161 213.868 311.084 213.791 310.929C213.714 310.774 213.52 310.697 213.211 310.697C212.94 310.697 212.476 310.91 211.819 311.335C211.2 311.722 210.408 312.379 209.441 313.307C208.513 314.235 207.624 315.163 206.773 316.091C205.922 316.98 204.743 318.237 203.235 319.861C201.766 321.446 200.47 322.819 199.349 323.979C199.04 324.25 198.769 324.385 198.537 324.385C198.344 324.385 198.247 324.308 198.247 324.153C198.827 321.176 199.117 318.237 199.117 315.337V314.235C199.001 314.042 198.827 313.945 198.595 313.945ZM220.977 316.439C220.745 316.439 220.629 316.304 220.629 316.033L220.803 315.627C221.499 314.97 221.847 314.409 221.847 313.945C221.847 313.365 221.537 313.075 220.919 313.075C219.565 313.075 217.729 314.022 215.409 315.917C213.127 317.773 211.987 319.436 211.987 320.905C211.987 321.524 212.393 321.833 213.205 321.833C214.017 321.833 214.945 321.504 215.989 320.847C217.071 320.151 217.98 319.474 218.715 318.817C219.488 318.121 219.913 317.773 219.991 317.773C220.377 317.812 220.571 318.005 220.571 318.353C220.571 318.508 220.261 319.01 219.643 319.861C219.063 320.712 218.773 321.388 218.773 321.891C218.773 322.278 219.082 322.471 219.701 322.471C220.358 322.471 221.499 322.104 223.123 321.369C224.747 320.596 226.177 319.822 227.415 319.049L229.271 317.889C229.309 317.966 229.329 318.121 229.329 318.353C229.329 318.585 229.155 318.778 228.807 318.933C223.587 322.49 219.952 324.269 217.903 324.269C216.897 324.269 216.395 323.766 216.395 322.761C216.395 322.336 216.472 321.891 216.627 321.427C216.356 321.736 215.544 322.22 214.191 322.877C212.876 323.496 211.697 323.805 210.653 323.805C209.609 323.805 209.087 323.322 209.087 322.355C209.087 320.074 210.672 317.754 213.843 315.395C217.013 312.998 219.681 311.799 221.847 311.799C223.123 311.799 223.761 312.34 223.761 313.423C223.761 314.042 223.374 314.699 222.601 315.395C221.827 316.091 221.286 316.439 220.977 316.439ZM231.111 317.019C229.255 318.72 228.076 319.571 227.573 319.571C227.419 319.571 227.341 319.494 227.341 319.339C227.341 319.184 227.399 319.049 227.515 318.933C228.443 318.43 229.526 317.618 230.763 316.497C230.57 316.033 230.473 315.53 230.473 314.989C230.473 313.674 231.15 312.418 232.503 311.219C233.857 310.02 234.997 309.421 235.925 309.421C236.428 309.421 236.679 309.672 236.679 310.175C236.679 310.639 235.906 311.799 234.359 313.655C234.205 313.848 234.031 314.042 233.837 314.235C233.644 314.428 233.431 314.66 233.199 314.931C233.006 315.163 232.851 315.337 232.735 315.453C232.929 315.646 233.277 315.994 233.779 316.497C234.282 316.961 234.688 317.348 234.997 317.657C235.848 318.508 236.273 319.571 236.273 320.847C236.273 322.123 235.481 323.225 233.895 324.153C232.31 325.12 230.647 325.603 228.907 325.603C227.206 325.603 226.355 325.081 226.355 324.037C226.355 323.032 227.148 322.104 228.733 321.253C230.319 320.402 231.981 319.822 233.721 319.513C233.489 319.204 233.045 318.798 232.387 318.295C231.769 317.792 231.343 317.367 231.111 317.019ZM234.127 320.209C232.813 320.364 231.575 320.731 230.415 321.311C229.255 321.852 228.675 322.51 228.675 323.283C228.675 324.018 229.197 324.385 230.241 324.385C231.324 324.385 232.271 324.134 233.083 323.631C233.934 323.128 234.359 322.568 234.359 321.949C234.359 321.33 234.282 320.75 234.127 320.209ZM232.329 314.989L233.837 313.365C234.843 312.166 235.345 311.451 235.345 311.219C235.345 310.948 235.229 310.813 234.997 310.813C234.34 310.813 233.663 311.142 232.967 311.799C232.271 312.418 231.923 313.036 231.923 313.655C231.923 314.235 232.059 314.68 232.329 314.989ZM249.977 316.439C249.745 316.439 249.629 316.304 249.629 316.033L249.803 315.627C250.499 314.97 250.847 314.409 250.847 313.945C250.847 313.365 250.537 313.075 249.919 313.075C248.565 313.075 246.729 314.022 244.409 315.917C242.127 317.773 240.987 319.436 240.987 320.905C240.987 321.524 241.393 321.833 242.205 321.833C243.017 321.833 243.945 321.504 244.989 320.847C246.071 320.151 246.98 319.474 247.715 318.817C248.488 318.121 248.913 317.773 248.991 317.773C249.377 317.812 249.571 318.005 249.571 318.353C249.571 318.508 249.261 319.01 248.643 319.861C248.063 320.712 247.773 321.388 247.773 321.891C247.773 322.278 248.082 322.471 248.701 322.471C249.358 322.471 250.499 322.104 252.123 321.369C253.747 320.596 255.177 319.822 256.415 319.049L258.271 317.889C258.309 317.966 258.329 318.121 258.329 318.353C258.329 318.585 258.155 318.778 257.807 318.933C252.587 322.49 248.952 324.269 246.903 324.269C245.897 324.269 245.395 323.766 245.395 322.761C245.395 322.336 245.472 321.891 245.627 321.427C245.356 321.736 244.544 322.22 243.191 322.877C241.876 323.496 240.697 323.805 239.653 323.805C238.609 323.805 238.087 323.322 238.087 322.355C238.087 320.074 239.672 317.754 242.843 315.395C246.013 312.998 248.681 311.799 250.847 311.799C252.123 311.799 252.761 312.34 252.761 313.423C252.761 314.042 252.374 314.699 251.601 315.395C250.827 316.091 250.286 316.439 249.977 316.439ZM293.914 283.089C293.721 283.63 290.163 290.262 283.242 302.983C284.711 303.138 286.123 303.486 287.476 304.027C292.503 300.895 297.162 297.338 301.454 293.355C305.785 289.334 308.917 285.39 310.85 281.523C310.889 281.136 311.063 280.943 311.372 280.943C311.72 280.943 312.087 281.04 312.474 281.233C312.899 281.426 313.112 281.658 313.112 281.929C311.604 285.641 308.588 289.546 304.064 293.645C299.54 297.705 294.475 301.398 288.868 304.723C293.044 306.966 295.132 310.929 295.132 316.613C295.132 318.276 294.919 319.803 294.494 321.195C294.069 322.587 293.663 323.554 293.276 324.095L292.638 324.907C292.329 324.907 292.174 324.714 292.174 324.327L292.522 323.225C293.063 321.562 293.334 319.977 293.334 318.469C293.334 312.592 291.13 308.416 286.722 305.941C284.595 307.101 282.275 308.261 279.762 309.421C276.591 315.182 274.175 319.474 272.512 322.297C272.241 322.954 271.874 323.38 271.41 323.573C270.985 323.766 270.54 323.863 270.076 323.863C269.612 323.863 269.38 323.786 269.38 323.631L276.398 310.755C273.846 311.683 271.719 312.147 270.018 312.147C267.814 312.147 266.712 311.296 266.712 309.595C266.712 307.894 268.162 306.347 271.062 304.955C274.001 303.524 277.229 302.809 280.748 302.809L291.014 283.959C291.13 283.65 291.478 283.398 292.058 283.205C292.677 282.973 293.141 282.857 293.45 282.857C293.759 282.857 293.914 282.934 293.914 283.089ZM279.008 304.085C276.301 304.085 273.923 304.588 271.874 305.593C269.825 306.598 268.8 307.797 268.8 309.189C268.8 310.388 269.554 310.987 271.062 310.987C272.609 310.987 274.619 310.484 277.094 309.479L279.994 304.143C279.762 304.104 279.433 304.085 279.008 304.085ZM282.488 304.433C281.444 306.366 280.806 307.546 280.574 307.971C281.773 307.391 283.377 306.502 285.388 305.303C284.46 304.916 283.493 304.626 282.488 304.433ZM304.548 322.761C304.548 322.336 304.857 321.62 305.476 320.615C306.133 319.61 306.559 318.972 306.752 318.701C306.984 318.43 307.313 318.005 307.738 317.425C303.137 321.601 299.966 323.689 298.226 323.689C297.259 323.689 296.776 323.283 296.776 322.471C296.776 321.311 298.729 318.044 302.634 312.669C302.827 312.36 303.079 312.205 303.388 312.205C304.277 312.476 304.722 312.669 304.722 312.785C304.722 312.901 304.606 313.133 304.374 313.481C301.049 317.966 299.386 320.499 299.386 321.079C299.386 321.62 299.579 321.891 299.966 321.891C301.049 321.891 302.963 320.654 305.708 318.179C308.492 315.666 310.503 313.597 311.74 311.973C311.895 311.702 312.146 311.567 312.494 311.567C313.267 311.722 313.654 311.876 313.654 312.031C313.229 312.65 312.649 313.462 311.914 314.467C311.179 315.472 310.58 316.304 310.116 316.961C309.652 317.58 309.169 318.256 308.666 318.991C307.699 320.306 307.119 321.272 306.926 321.891C306.926 322.278 307.235 322.471 307.854 322.471C308.511 322.471 309.652 322.104 311.276 321.369C312.9 320.596 314.331 319.822 315.568 319.049L317.424 317.889C317.463 317.966 317.482 318.121 317.482 318.353C317.482 318.585 317.308 318.778 316.96 318.933C311.74 322.49 308.105 324.269 306.056 324.269C305.051 324.269 304.548 323.766 304.548 322.761ZM317.619 318.527L316.169 319.455C316.014 319.532 315.879 319.571 315.763 319.571C315.608 319.571 315.531 319.494 315.531 319.339C315.531 319.184 315.589 319.049 315.705 318.933C316.014 318.778 316.981 318.082 318.605 316.845C320.267 315.569 321.331 314.931 321.795 314.931C322.297 314.931 322.549 315.221 322.549 315.801C322.549 316.342 321.949 317.483 320.751 319.223C319.591 320.963 319.011 321.91 319.011 322.065C319.011 322.181 319.049 322.239 319.127 322.239C319.475 322.239 321.485 320.712 325.159 317.657C328.832 314.602 330.823 313.075 331.133 313.075C331.713 313.075 332.003 313.346 332.003 313.887C332.003 314.235 331.326 315.434 329.973 317.483C328.658 319.494 327.788 320.866 327.363 321.601C327.401 321.64 327.479 321.659 327.595 321.659C327.749 321.659 328.542 321.156 329.973 320.151C331.403 319.107 332.892 318.005 334.439 316.845C335.985 315.685 336.894 315.028 337.165 314.873C337.435 314.68 337.687 314.583 337.919 314.583C338.383 314.622 338.615 314.892 338.615 315.395C338.615 315.588 337.938 316.613 336.585 318.469C335.27 320.286 334.613 321.446 334.613 321.949C334.613 322.297 335.019 322.471 335.831 322.471C336.681 322.471 337.919 322.104 339.543 321.369C341.167 320.596 342.597 319.822 343.835 319.049L345.691 317.889C345.729 317.966 345.749 318.121 345.749 318.353C345.749 318.585 345.575 318.778 345.227 318.933C340.007 322.49 336.372 324.269 334.323 324.269C333.124 324.269 332.525 323.805 332.525 322.877C332.525 321.988 332.776 321.137 333.279 320.325C333.82 319.513 334.284 318.836 334.671 318.295C335.057 317.715 335.251 317.406 335.251 317.367C330.069 321.156 327.073 323.225 326.261 323.573C325.487 323.96 324.927 324.153 324.579 324.153C324.231 324.153 324.057 323.766 324.057 322.993L328.233 316.497C327.769 316.69 326.261 317.754 323.709 319.687C321.157 321.62 319.165 323.225 317.735 324.501C317.193 325.158 316.671 325.487 316.169 325.487C315.666 325.371 315.415 325.042 315.415 324.501C315.415 324.346 316.111 323.206 317.503 321.079C318.933 318.952 319.649 317.812 319.649 317.657C319.649 317.464 319.591 317.367 319.475 317.367C319.397 317.367 319.243 317.444 319.011 317.599C318.779 317.715 318.508 317.889 318.199 318.121C317.889 318.353 317.696 318.488 317.619 318.527ZM355.045 316.439C354.813 316.439 354.697 316.304 354.697 316.033L354.871 315.627C355.567 314.97 355.915 314.409 355.915 313.945C355.915 313.365 355.606 313.075 354.987 313.075C353.634 313.075 351.797 314.022 349.477 315.917C347.196 317.773 346.055 319.436 346.055 320.905C346.055 321.524 346.461 321.833 347.273 321.833C348.085 321.833 349.013 321.504 350.057 320.847C351.14 320.151 352.048 319.474 352.783 318.817C353.556 318.121 353.982 317.773 354.059 317.773C354.446 317.812 354.639 318.005 354.639 318.353C354.639 318.508 354.33 319.01 353.711 319.861C353.131 320.712 352.841 321.388 352.841 321.891C352.841 322.278 353.15 322.471 353.769 322.471C354.426 322.471 355.567 322.104 357.191 321.369C358.815 320.596 360.246 319.822 361.483 319.049L363.339 317.889C363.378 317.966 363.397 318.121 363.397 318.353C363.397 318.585 363.223 318.778 362.875 318.933C357.655 322.49 354.02 324.269 351.971 324.269C350.966 324.269 350.463 323.766 350.463 322.761C350.463 322.336 350.54 321.891 350.695 321.427C350.424 321.736 349.612 322.22 348.259 322.877C346.944 323.496 345.765 323.805 344.721 323.805C343.677 323.805 343.155 323.322 343.155 322.355C343.155 320.074 344.74 317.754 347.911 315.395C351.082 312.998 353.75 311.799 355.915 311.799C357.191 311.799 357.829 312.34 357.829 313.423C357.829 314.042 357.442 314.699 356.669 315.395C355.896 316.091 355.354 316.439 355.045 316.439ZM362.048 319.455C361.893 319.532 361.758 319.571 361.642 319.571C361.487 319.571 361.41 319.494 361.41 319.339C361.41 319.184 361.468 319.049 361.584 318.933C363.169 318.044 364.909 316.594 366.804 314.583C365.064 314.042 364.194 313.288 364.194 312.321C364.194 311.316 364.851 310.214 366.166 309.015C367.48 307.778 368.718 307.159 369.878 307.159C370.651 307.159 371.038 307.623 371.038 308.551C371.038 309.982 370.322 311.509 368.892 313.133C370.748 313.442 371.676 313.887 371.676 314.467C371.676 315.24 371.328 315.84 370.632 316.265C369.974 316.652 369.201 317.367 368.312 318.411C367.422 319.455 366.978 320.499 366.978 321.543C366.978 321.775 367.055 321.988 367.21 322.181C367.364 322.374 367.693 322.471 368.196 322.471C368.698 322.471 369.762 322.104 371.386 321.369C373.01 320.596 374.44 319.822 375.678 319.049L377.534 317.889C377.572 317.966 377.592 318.121 377.592 318.353C377.592 318.585 377.418 318.778 377.07 318.933C371.85 322.49 368.215 324.269 366.166 324.269C365.16 324.269 364.658 323.766 364.658 322.761C364.658 321.949 364.928 321.098 365.47 320.209C366.05 319.32 366.668 318.585 367.326 318.005C368.022 317.425 368.64 316.884 369.182 316.381C369.762 315.84 370.052 315.492 370.052 315.337C370.052 315.182 369.8 315.086 369.298 315.047C368.834 315.008 368.215 314.912 367.442 314.757C365.315 317.038 363.517 318.604 362.048 319.455ZM365.644 311.393C365.644 312.166 366.494 312.708 368.196 313.017C369.201 311.78 369.704 310.716 369.704 309.827C369.704 308.899 369.414 308.435 368.834 308.435C368.254 308.435 367.577 308.783 366.804 309.479C366.03 310.136 365.644 310.774 365.644 311.393Z" fill="white"/>
<path d="M185.418 134.711V132.311L186.282 132.215C188.522 131.895 190.346 131.447 191.754 130.871C193.226 130.295 194.474 129.367 195.498 128.087C196.586 126.743 197.61 124.919 198.57 122.615L221.802 66.2628H225.066L247.722 122.615C249.002 125.751 250.378 128.055 251.85 129.527C253.322 130.999 255.338 131.863 257.898 132.119L259.818 132.311V134.711L247.914 134.423L232.554 134.711V132.311L234.474 132.119C236.714 131.863 238.314 131.383 239.274 130.679C240.234 129.975 240.714 128.983 240.714 127.703C240.714 126.423 240.266 124.695 239.37 122.519L234.378 110.039H207.306L202.122 122.519C201.674 123.671 201.29 124.727 200.97 125.687C200.65 126.583 200.49 127.383 200.49 128.087C200.49 129.303 201.002 130.231 202.026 130.871C203.114 131.511 204.874 131.927 207.306 132.119L209.226 132.311V134.711L197.034 134.423L185.418 134.711ZM208.554 106.967H233.226L221.13 76.5348L208.554 106.967Z" fill="white"/>
<path d="M274.482 171.151C271.922 171.151 269.586 170.735 267.474 169.903C265.426 169.071 263.57 168.239 261.906 167.407C260.498 166.639 259.314 166.063 258.354 165.679C257.458 165.295 256.658 165.103 255.954 165.103C255.058 165.103 254.418 165.487 254.034 166.255C253.714 166.959 253.458 167.759 253.266 168.655L252.978 170.095H250.578L251.058 158.767L250.77 146.383H253.17L254.226 150.895C254.93 153.711 256.178 156.463 257.97 159.151C259.826 161.839 262.13 164.047 264.882 165.775C267.698 167.503 270.898 168.367 274.482 168.367C276.466 168.367 278.354 167.951 280.146 167.119C282.002 166.223 283.506 164.879 284.658 163.087C285.874 161.295 286.482 158.959 286.482 156.079C286.482 151.791 285.074 148.335 282.258 145.711C279.506 143.087 275.666 140.591 270.738 138.223L266.706 136.303C261.906 133.999 258.322 131.471 255.954 128.719C253.65 125.903 252.498 122.319 252.498 117.967C252.498 114.575 253.33 111.567 254.994 108.943C256.658 106.319 258.93 104.271 261.81 102.799C264.754 101.327 268.114 100.591 271.89 100.591C274.514 100.591 276.722 100.943 278.514 101.647C280.306 102.351 281.714 102.959 282.738 103.471C284.402 104.303 285.714 104.719 286.674 104.719C287.698 104.719 288.306 103.727 288.498 101.743H290.898L290.61 110.959L290.802 120.271H288.402C288.018 116.687 287.026 113.647 285.426 111.151C283.826 108.591 281.874 106.639 279.57 105.295C277.33 103.951 274.93 103.279 272.37 103.279C268.594 103.279 265.522 104.367 263.154 106.543C260.85 108.719 259.698 111.503 259.698 114.895C259.698 118.543 260.882 121.423 263.25 123.535C265.618 125.583 268.69 127.535 272.466 129.391L276.402 131.311C279.922 133.039 282.93 134.831 285.426 136.687C287.986 138.479 289.938 140.591 291.282 143.023C292.69 145.455 293.394 148.495 293.394 152.143C293.394 155.919 292.53 159.247 290.802 162.127C289.138 165.007 286.866 167.247 283.986 168.847C281.17 170.383 278.002 171.151 274.482 171.151Z" fill="white"/>
</svg>
