<svg width="256" height="256" viewBox="0 0 256 256" fill="none" xmlns="http://www.w3.org/2000/svg">
<path d="M55.9624 245H63.0156L51.9854 213.293H44.1851L33.1768 245H39.9883L42.4053 237.31H53.5454L55.9624 245ZM47.8984 219.358H48.0522L52.1172 232.344H43.8335L47.8984 219.358ZM72.376 230.894H72.2881V213.293H65.8721V245H72.2881V237.222L73.958 235.42L80.7036 245H88.0864L78.6602 231.553L87.647 221.445H80.374L72.376 230.894ZM90.042 245H96.458V221.445H90.042V245ZM93.25 218.853C95.1836 218.853 96.6777 217.38 96.6777 215.535C96.6777 213.667 95.1836 212.217 93.25 212.217C91.3164 212.217 89.8223 213.667 89.8223 215.535C89.8223 217.38 91.3164 218.853 93.25 218.853ZM100.896 245H107.312V213.293H100.896V245ZM122.21 225.686C125.066 225.686 127.022 227.751 127.154 230.762H117.156C117.376 227.817 119.397 225.686 122.21 225.686ZM127.242 237.793C126.648 239.595 124.847 240.759 122.496 240.759C119.222 240.759 117.09 238.452 117.09 235.09V234.695H133.328V232.739C133.328 225.576 129 220.94 122.144 220.94C115.179 220.94 110.784 225.818 110.784 233.333C110.784 240.869 115.135 245.505 122.386 245.505C128.208 245.505 132.427 242.407 133.13 237.793H127.242ZM136.25 228.367C136.25 231.838 138.536 234.167 142.996 235.178L147.347 236.145C149.456 236.65 150.247 237.31 150.247 238.496C150.247 240.034 148.775 241.001 146.336 241.001C143.787 241.001 142.227 239.858 141.919 237.881H135.657C136.009 242.473 139.876 245.505 146.16 245.505C152.378 245.505 156.641 242.451 156.641 237.815C156.641 234.299 154.729 232.432 150.005 231.377L145.501 230.41C143.436 229.927 142.425 229.136 142.425 227.971C142.425 226.455 143.875 225.444 146.094 225.444C148.467 225.444 149.983 226.609 150.115 228.499H156.026C155.938 223.928 152.093 220.94 146.182 220.94C140.14 220.94 136.25 223.884 136.25 228.367ZM160.003 245H166.419V231.553C166.419 228.455 168.199 226.323 171.231 226.323C174.153 226.323 175.647 228.169 175.647 231.201V245H182.063V229.839C182.063 224.39 179.075 221.006 173.846 221.006C170.264 221.006 167.693 222.676 166.441 225.642H166.309V213.293H160.003V245ZM194.456 235.969C194.654 241.924 199.51 245.549 207.134 245.549C215 245.549 219.988 241.66 219.988 235.508C219.988 230.674 217.22 227.949 210.87 226.587L207.024 225.774C203.377 224.939 201.839 223.84 201.839 221.885C201.839 219.534 204.036 217.974 207.31 217.974C210.628 217.974 212.979 219.6 213.199 222.28H219.417C219.307 216.545 214.671 212.744 207.288 212.744C200.213 212.744 195.159 216.611 195.159 222.456C195.159 227.092 198.038 230.059 203.882 231.311L208.013 232.212C211.836 233.069 213.353 234.211 213.353 236.277C213.353 238.606 210.936 240.298 207.398 240.298C203.882 240.298 201.158 238.584 200.85 235.969H194.456Z" fill="white"/>
<path d="M123.528 11.0871C125.37 7.40189 130.63 7.40189 132.472 11.0871L225.908 197.958C227.39 200.922 223.679 203.747 221.216 201.529L128 117.563L34.7835 201.529C32.321 203.747 28.6102 200.922 30.0924 197.958L123.528 11.0871Z" fill="url(#paint0_linear_13_3)"/>
<path opacity="0.95" d="M61.9391 111.99C59.3324 111.99 57.966 108.895 59.7225 106.969L150.159 7.80673C150.976 6.91041 152.385 7.97009 151.75 9.00385L104.837 85.4041C103.609 87.403 105.048 89.9739 107.393 89.9739H192.581C195.077 89.9739 196.481 92.8451 194.949 94.8157L109.418 204.787C108.665 205.756 107.166 204.778 107.749 203.698L154.888 116.416C155.968 114.417 154.52 111.99 152.249 111.99H61.9391Z" fill="url(#paint1_linear_13_3)"/>
<defs>
<linearGradient id="paint0_linear_13_3" x1="-11.2444" y1="40.6161" x2="248.765" y2="172.468" gradientUnits="userSpaceOnUse">
<stop stop-color="#00FF66"/>
<stop offset="1" stop-color="#3300FF"/>
</linearGradient>
<linearGradient id="paint1_linear_13_3" x1="42.7848" y1="24.5548" x2="221.138" y2="166.675" gradientUnits="userSpaceOnUse">
<stop stop-color="#FF9900"/>
<stop offset="0.0001" stop-color="#FF6B00"/>
<stop offset="1" stop-color="#DBFF00"/>
</linearGradient>
</defs>
</svg>
